<?xml version="1.0" standalone="no"?><!DOCTYPE svg PUBLIC "-//W3C//DTD SVG 1.1//EN" "http://www.w3.org/Graphics/SVG/1.1/DTD/svg11.dtd"><svg t="1772528079021" class="icon" viewBox="0 0 1024 1024" version="1.1" xmlns="http://www.w3.org/2000/svg" p-id="12049" xmlns:xlink="http://www.w3.org/1999/xlink" width="200" height="200"><path d="M74.666667 853.333333c-17.066667 0-32-14.933333-32-32v-426.666666c0-17.066667 14.933333-32 32-32s32 14.933333 32 32v426.666666c0 17.066667-14.933333 32-32 32zM366.933333 853.333333c-17.066667 0-32-14.933333-32-32v-618.666666c0-17.066667 14.933333-32 32-32s32 14.933333 32 32v618.666666c0 17.066667-14.933333 32-32 32zM657.066667 853.333333c-17.066667 0-32-14.933333-32-32v-341.333333c0-17.066667 14.933333-32 32-32s32 14.933333 32 32v341.333333c0 17.066667-12.8 32-32 32zM949.333333 853.333333c-17.066667 0-32-14.933333-32-32v-512c0-17.066667 14.933333-32 32-32s32 14.933333 32 32v512c0 17.066667-14.933333 32-32 32z" fill="" p-id="12050"></path></svg>