<?xml version="1.0" standalone="no"?><!DOCTYPE svg PUBLIC "-//W3C//DTD SVG 1.1//EN" "http://www.w3.org/Graphics/SVG/1.1/DTD/svg11.dtd"><svg t="1772528015546" class="icon" viewBox="0 0 1030 1024" version="1.1" xmlns="http://www.w3.org/2000/svg" p-id="8438" xmlns:xlink="http://www.w3.org/1999/xlink" width="201.171875" height="200"><path d="M741.89399746 933.875c-107.79185001 0-196.99889831-89.20704832-196.99889831-196.99889831s89.20704832-196.99889831 196.99889831-196.99889915 196.99889831 89.20704832 196.99889915 196.99889915-89.20704832 196.99889831-196.99889915 196.99889831z m0-341.96035253c-81.77312796 0-144.9614534 66.90528644-144.96145339 144.96145422s66.90528644 144.9614534 144.96145339 144.96145339 144.9614534-66.90528644 144.96145422-144.96145339-66.90528644-144.9614534-144.96145422-144.96145422z" p-id="8439"></path><path d="M791.9242839 816.45622287a28.39757712 28.39757712 0 0 1-18.3989534-7.87995675l-49.91877795-49.91877714a25.42400848 25.42400848 0 0 1 0-36.79790762l49.91877795-49.95594663c10.51899746-10.51899746 26.27890933-10.51899746 36.79790763 0s10.51899746 26.27890933 0 36.7979068l-31.51982373 31.55699405 31.51982373 31.51982374a25.42400848 25.42400848 0 0 1 0 36.7979068 28.39757712 28.39757712 0 0 1-18.39895423 7.87995675z" p-id="8440"></path><path d="M686.80864575 816.45622287a28.39757712 28.39757712 0 0 1-18.39895422-7.87995675 25.42400848 25.42400848 0 0 1 0-36.7979068l31.51982373-31.51982374-31.51982373-31.55699405c-10.51899746-10.51899746-10.51899746-26.27890933 0-36.7979068s26.27890933-10.51899746 36.79790762 0l49.91877713 49.95594663a25.42400848 25.42400848 0 0 1 0 36.79790762l-49.91877713 49.91877714a28.39757712 28.39757712 0 0 1-18.3989534 7.87995676zM838.53496694 502.70759915c-14.86784152 0-26.01872288-11.15088135-26.01872204-26.01872288V298.27477966c0-40.88656358-33.45264322-70.62224661-70.62224744-70.6222466h-66.9052856c-14.86784152 0-26.01872288-11.15088135-26.01872288-26.01872288s11.15088135-26.01872288 26.01872288-26.01872205h66.9052856c66.90528644 0 122.65969153 55.75440509 122.65969236 122.65969153v178.41409661c0 14.86784152-11.15088135 26.01872288-26.01872288 26.01872288zM507.72549576 933.875h-293.6398678c-66.90528644 0-122.65969153-55.75440509-122.65969154-122.65969153V301.99173984c0-66.90528644 55.75440509-122.65969153 122.65969154-122.65969152h55.7544051c14.86784152 0 26.01872288 11.15088135 26.01872204 26.01872286s-11.15088135 26.01872288-26.01872204 26.01872205h-55.7544051c-40.88656358 0-70.62224661 33.45264322-70.62224661 70.62224661v509.22356863c0 40.88656358 33.45264322 70.62224661 70.62224661 70.62224661h293.6398678c14.86784152 0 26.01872288 11.15088135 26.01872204 26.01872205s-11.15088135 26.01872288-26.01872204 26.01872287z" p-id="8441"></path><path d="M723.30919577 446.95319406h-475.77092459c-14.86784152 0-26.01872288-11.15088135-26.01872286-26.01872287s11.15088135-26.01872288 26.01872286-26.01872205h475.77092459c14.86784152 0 26.01872288 11.15088135 26.01872288 26.01872205s-11.15088135 26.01872288-26.01872288 26.01872287zM552.3290195 573.32984577h-308.50770932c-14.86784152 0-26.01872288-11.15088135-26.01872205-26.01872205s11.15088135-26.01872288 26.01872205-26.01872287h308.50770932c14.86784152 0 26.01872288 11.15088135 26.01872288 26.01872287s-11.15088135 26.01872288-26.01872288 26.01872204zM526.31029746 283.40693814h-96.64096948c-52.03744492 0-96.64096948-44.60352457-96.64096867-96.64096866 0-52.03744492 44.60352457-96.64096948 96.64096867-96.64096948h96.64096948c52.03744492 0 96.64096948 44.60352457 96.64096866 96.64096948 0 55.75440509-44.60352457 96.64096948-96.64096866 96.64096866z m-96.64096948-141.24449322c-26.01872288 0-44.60352457 18.58480169-44.60352375 44.60352456s18.58480169 44.60352457 44.60352375 44.60352374h96.64096948c26.01872288 0 44.60352457-18.58480169 44.60352373-44.60352374s-18.58480169-44.60352457-44.60352373-44.60352456h-96.64096948z" p-id="8442"></path></svg>