<?xml version="1.0" standalone="no"?><!DOCTYPE svg PUBLIC "-//W3C//DTD SVG 1.1//EN" "http://www.w3.org/Graphics/SVG/1.1/DTD/svg11.dtd"><svg t="1772527984324" class="icon" viewBox="0 0 1024 1024" version="1.1" xmlns="http://www.w3.org/2000/svg" p-id="7351" xmlns:xlink="http://www.w3.org/1999/xlink" width="200" height="200"><path d="M892.342857 636.342857h-138.971428l-21.942858-21.942857c-29.257143-29.257143-29.257143-51.2-29.257142-58.514286v-7.314285s7.314286-14.628571 14.628571-36.571429c7.314286-7.314286 14.628571-14.628571 14.628571-21.942857 7.314286-14.628571 21.942857-29.257143 29.257143-43.885714 36.571429-51.2 58.514286-109.714286 58.514286-168.228572 0-146.285714-117.028571-263.314286-270.628571-270.628571h-7.314286C387.657143 7.314286 270.628571 124.342857 270.628571 270.628571c0 65.828571 21.942857 124.342857 65.828572 175.542858 7.314286 14.628571 21.942857 29.257143 29.257143 43.885714 21.942857 29.257143 29.257143 51.2 29.257143 51.2v7.314286c0 7.314286 0 36.571429-29.257143 58.514285-7.314286 14.628571-14.628571 21.942857-21.942857 29.257143H204.8c-87.771429 0-131.657143 36.571429-131.657143 117.028572v175.542857c0 21.942857 7.314286 51.2 29.257143 65.828571 14.628571 21.942857 36.571429 29.257143 65.828571 29.257143h760.685715c51.2 0 95.085714-43.885714 95.085714-95.085714v-175.542857c0-80.457143-43.885714-117.028571-131.657143-117.028572zM146.285714 928.914286v-175.542857c0-21.942857 0-36.571429 7.314286-43.885715 7.314286-7.314286 21.942857-7.314286 51.2-7.314285H365.714286l7.314285-7.314286c14.628571-7.314286 29.257143-21.942857 43.885715-36.571429 43.885714-43.885714 51.2-95.085714 51.2-117.028571 0-21.942857-14.628571-51.2-36.571429-95.085714-21.942857-14.628571-29.257143-29.257143-43.885714-43.885715-29.257143-36.571429-51.2-80.457143-51.2-131.657143C336.457143 168.228571 431.542857 73.142857 541.257143 73.142857h14.628571c109.714286 7.314286 197.485714 95.085714 197.485715 204.8 0 43.885714-14.628571 87.771429-43.885715 124.342857-7.314286 14.628571-21.942857 29.257143-36.571428 51.2-7.314286 7.314286-7.314286 14.628571-14.628572 21.942857-21.942857 29.257143-29.257143 51.2-21.942857 73.142858 0 21.942857 0 65.828571 51.2 117.028571 14.628571 14.628571 29.257143 21.942857 43.885714 36.571429h160.914286c58.514286 0 58.514286 7.314286 58.514286 43.885714v175.542857c0 7.314286 0 14.628571-7.314286 14.628571 0 14.628571-7.314286 14.628571-14.628571 14.628572H168.228571c-7.314286 0-14.628571 0-14.628571-7.314286-7.314286 0-7.314286-7.314286-7.314286-14.628571z" fill="" p-id="7352"></path><path d="M731.428571 863.085714H329.142857c-21.942857 0-36.571429-14.628571-36.571428-36.571428s14.628571-36.571429 36.571428-36.571429H731.428571c21.942857 0 36.571429 14.628571 36.571429 36.571429s-14.628571 36.571429-36.571429 36.571428z" fill="" p-id="7353"></path></svg>